# xmcd
#
# Track frame offsets:
#  150
#  17638
#  47179
#  64154
#  90500
#  103915
#  126535
#  150965
#  165695
#  195252
#  209669
#  231252
#
# Disc length: 3281 seconds
#
# Revision: 0
# Processed by: cddbd v1.4PL0 Copyright (c) Steve Scherf et al.
# Submitted via: AltoMP3_Maker 3.0
#
DISCID=a10ccf0c
DTITLE=Doctor Wu - Doctor Wu
DYEAR=1900
DGENRE=
TTITLE0=Day by day
TTITLE1=Alone
TTITLE2=Whats wrong in my mind
TTITLE3=1000 miles
TTITLE4=What else can I do
TTITLE5=Strange fruit
TTITLE6=I dont love you anymore
TTITLE7=Do you feel it
TTITLE8=Ridin on ... for you
TTITLE9=Dont ask me for money
TTITLE10=View points
TTITLE11=Mo better blues
EXTD=
EXTT0=
EXTT1=
EXTT2=
EXTT3=
EXTT4=
EXTT5=
EXTT6=
EXTT7=
EXTT8=
EXTT9=
EXTT10=
EXTT11=
PLAYORDER=
